<svg width="64" height="56" viewBox="0 0 64 56" fill="none" xmlns="http://www.w3.org/2000/svg">
<path d="M59.5769 50.3102C59.5771 50.3102 59.575 50.3128 59.5699 50.318C59.5742 50.3128 59.5768 50.3102 59.5769 50.3102ZM58.3387 50.6898C58.4702 50.7442 58.5898 50.7969 58.6984 50.8475C58.5898 50.8981 58.4702 50.9508 58.3387 51.0052C57.0484 51.5396 55.0602 52.0645 52.4548 52.5208C47.2767 53.4278 40.0437 53.9999 31.9998 53.9999C23.9559 53.9999 16.7229 53.4278 11.5447 52.5208C8.93942 52.0645 6.95121 51.5396 5.66085 51.0052C5.52936 50.9508 5.40973 50.8981 5.30118 50.8475C5.40973 50.7969 5.52936 50.7442 5.66085 50.6898C6.95121 50.1554 8.93942 49.6305 11.5447 49.1742C16.7229 48.2672 23.9559 47.6951 31.9998 47.6951C40.0437 47.6951 47.2767 48.2672 52.4548 49.1742C55.0602 49.6305 57.0484 50.1554 58.3387 50.6898ZM4.42265 50.3102C4.42284 50.3102 4.42536 50.3128 4.42964 50.318C4.4246 50.3128 4.42246 50.3102 4.42265 50.3102ZM4.42265 51.3848C4.42246 51.3848 4.4246 51.3822 4.42964 51.377C4.42536 51.3822 4.42284 51.3848 4.42265 51.3848ZM59.5699 51.377C59.575 51.3822 59.5771 51.3848 59.5769 51.3848C59.5767 51.3848 59.5742 51.3822 59.5699 51.377Z" stroke="#4969ED" stroke-width="4"/>
<path d="M62.1812 24.2775C62.1816 24.2775 62.1781 24.2818 62.1694 24.2902C62.1765 24.2817 62.1808 24.2775 62.1812 24.2775ZM60.764 24.6854C60.9168 24.7445 61.0557 24.8018 61.1818 24.8569C61.0557 24.9121 60.9168 24.9694 60.764 25.0284C59.3341 25.5813 57.148 26.1185 54.3046 26.5835C48.6498 27.5082 40.7629 28.09 32 28.09C23.2371 28.09 15.3502 27.5082 9.69536 26.5835C6.85199 26.1185 4.66591 25.5813 3.23596 25.0284C3.08321 24.9694 2.94426 24.9121 2.81822 24.8569C2.94426 24.8018 3.08321 24.7445 3.23596 24.6854C4.66591 24.1326 6.85199 23.5954 9.69536 23.1304C15.3502 22.2057 23.2371 21.6239 32 21.6239C40.7629 21.6239 48.6498 22.2057 54.3046 23.1304C57.148 23.5954 59.3341 24.1326 60.764 24.6854ZM1.81877 24.2775C1.81917 24.2775 1.82351 24.2818 1.83061 24.2903C1.82193 24.2818 1.81838 24.2775 1.81877 24.2775ZM1.81878 25.4363C1.81838 25.4363 1.82193 25.4321 1.83061 25.4236C1.82351 25.4321 1.81917 25.4364 1.81878 25.4363ZM62.1694 25.4236C62.1781 25.4321 62.1816 25.4363 62.1812 25.4363C62.1808 25.4364 62.1765 25.4321 62.1694 25.4236Z" stroke="#4969ED" stroke-width="4"/>
<path d="M62.1928 44.0007C62.1933 44.0007 62.1894 44.0053 62.1798 44.0145C62.1876 44.0053 62.1924 44.0007 62.1928 44.0007ZM60.7737 44.468C60.8963 44.5147 61.01 44.5602 61.1152 44.6045C61.01 44.6487 60.8963 44.6942 60.7737 44.7409C59.3418 45.286 57.1538 45.8152 54.3095 46.2732C48.6527 47.184 40.764 47.7569 32 47.7569C23.236 47.7569 15.3473 47.184 9.69052 46.2732C6.84624 45.8152 4.65823 45.286 3.22626 44.7409C3.10373 44.6942 2.99005 44.6487 2.88478 44.6045C2.99005 44.5602 3.10373 44.5147 3.22626 44.468C4.65823 43.9229 6.84624 43.3937 9.69052 42.9357C15.3473 42.0249 23.236 41.452 32 41.452C40.764 41.452 48.6527 42.0249 54.3095 42.9357C57.1538 43.3937 59.3418 43.9229 60.7737 44.468ZM1.80716 44.0007C1.80761 44.0007 1.81241 44.0053 1.82022 44.0145C1.81062 44.0053 1.80672 44.0007 1.80716 44.0007ZM1.80716 45.2082C1.80672 45.2082 1.81062 45.2036 1.82023 45.1944C1.81241 45.2036 1.80761 45.2082 1.80716 45.2082ZM62.1798 45.1945C62.1894 45.2036 62.1933 45.2082 62.1928 45.2082C62.1924 45.2082 62.1876 45.2037 62.1798 45.1945Z" stroke="#4969ED" stroke-width="4"/>
<path d="M62.1928 29.7093C62.1933 29.7094 62.1894 29.714 62.1798 29.7231C62.1876 29.7139 62.1924 29.7093 62.1928 29.7093ZM60.7737 30.1767C60.8963 30.2233 61.01 30.2689 61.1152 30.3131C61.01 30.3573 60.8963 30.4028 60.7737 30.4495C59.3418 30.9946 57.1538 31.5239 54.3095 31.9818C48.6527 32.8927 40.764 33.4655 32 33.4655C23.236 33.4655 15.3473 32.8927 9.69052 31.9818C6.84624 31.5239 4.65823 30.9946 3.22626 30.4495C3.10373 30.4028 2.99005 30.3573 2.88478 30.3131C2.99005 30.2689 3.10373 30.2233 3.22626 30.1767C4.65823 29.6315 6.84624 29.1023 9.69052 28.6443C15.3473 27.7335 23.236 27.1606 32 27.1606C40.764 27.1606 48.6527 27.7335 54.3095 28.6443C57.1538 29.1023 59.3418 29.6315 60.7737 30.1767ZM1.80716 29.7093C1.80761 29.7093 1.81241 29.7139 1.82022 29.7231C1.81062 29.714 1.80672 29.7094 1.80716 29.7093ZM1.80716 30.9168C1.80672 30.9168 1.81062 30.9122 1.82023 30.903C1.81241 30.9123 1.80761 30.9168 1.80716 30.9168ZM62.1798 30.9031C62.1894 30.9122 62.1933 30.9168 62.1928 30.9168C62.1924 30.9168 62.1876 30.9123 62.1798 30.9031Z" stroke="#4969ED" stroke-width="4"/>
<path d="M59.5769 4.61511C59.5771 4.61513 59.575 4.61775 59.5699 4.62298C59.5742 4.61772 59.5768 4.6151 59.5769 4.61511ZM58.3387 4.99469C58.4702 5.04914 58.5898 5.10185 58.6984 5.15244C58.5898 5.20303 58.4702 5.25573 58.3387 5.31018C57.0484 5.84454 55.0602 6.36941 52.4548 6.82575C47.2767 7.73274 40.0437 8.30487 31.9998 8.30487C23.9559 8.30487 16.7229 7.73274 11.5447 6.82575C8.93942 6.36941 6.95121 5.84454 5.66085 5.31018C5.52936 5.25573 5.40973 5.20303 5.30118 5.15244C5.40973 5.10185 5.52936 5.04914 5.66085 4.99469C6.95121 4.46033 8.93942 3.93547 11.5447 3.47912C16.7229 2.57213 23.9559 2 31.9998 2C40.0437 2 47.2767 2.57213 52.4548 3.47912C55.0602 3.93547 57.0484 4.46033 58.3387 4.99469ZM4.42265 4.61511C4.42284 4.61511 4.42536 4.61773 4.42964 4.62298C4.4246 4.61774 4.42246 4.61512 4.42265 4.61511ZM4.42265 5.68976C4.42246 5.68975 4.4246 5.68713 4.42964 5.68189C4.42536 5.68714 4.42284 5.68976 4.42265 5.68976ZM59.5699 5.6819C59.575 5.68713 59.5771 5.68975 59.5769 5.68976C59.5767 5.68976 59.5742 5.68715 59.5699 5.6819Z" stroke="#4969ED" stroke-width="4"/>
<path d="M62.1928 10.3406C62.1933 10.3406 62.1894 10.3452 62.1798 10.3543C62.1876 10.3451 62.1924 10.3406 62.1928 10.3406ZM60.7737 10.8079C60.8963 10.8545 61.01 10.9001 61.1152 10.9443C61.01 10.9885 60.8963 11.0341 60.7737 11.0807C59.3418 11.6258 57.1538 12.1551 54.3095 12.6131C48.6527 13.5239 40.764 14.0967 32 14.0967C23.236 14.0967 15.3473 13.5239 9.69052 12.6131C6.84624 12.1551 4.65823 11.6258 3.22626 11.0807C3.10373 11.0341 2.99005 10.9885 2.88478 10.9443C2.99005 10.9001 3.10373 10.8545 3.22626 10.8079C4.65823 10.2628 6.84624 9.73352 9.69052 9.27555C15.3473 8.36473 23.236 7.79187 32 7.79187C40.764 7.79187 48.6527 8.36473 54.3095 9.27555C57.1538 9.73352 59.3418 10.2628 60.7737 10.8079ZM1.80716 10.3406C1.80761 10.3406 1.81241 10.3451 1.82022 10.3543C1.81062 10.3452 1.80672 10.3406 1.80716 10.3406ZM1.80716 11.548C1.80672 11.548 1.81062 11.5434 1.82023 11.5343C1.81241 11.5435 1.80761 11.5481 1.80716 11.548ZM62.1798 11.5343C62.1894 11.5434 62.1933 11.548 62.1928 11.548C62.1924 11.5481 62.1876 11.5435 62.1798 11.5343Z" stroke="#4969ED" stroke-width="4"/>
</svg>
