<svg width="54" height="54" viewBox="0 0 64 64" fill="none" xmlns="http://www.w3.org/2000/svg">
<path d="M60.4674 41.7621C60.4677 41.7621 60.4658 41.7652 60.4605 41.7712C60.4644 41.7651 60.4671 41.7621 60.4674 41.7621ZM58.8022 41.3844C59.4577 41.5919 59.9151 41.7906 60.2019 41.964C59.9151 42.1374 59.4577 42.3362 58.8022 42.5437C57.3954 42.989 55.308 43.4042 52.6672 43.7577C47.4002 44.4629 40.0927 44.9024 31.9998 44.9024C23.9069 44.9024 16.5994 44.4629 11.3324 43.7577C8.69158 43.4042 6.6042 42.989 5.19741 42.5437C4.54192 42.3362 4.08445 42.1374 3.79768 41.964C4.08445 41.7906 4.54192 41.5919 5.19741 41.3844C6.6042 40.9391 8.69158 40.5239 11.3324 40.1703C16.5994 39.4651 23.9069 39.0256 31.9998 39.0256C40.0927 39.0256 47.4002 39.4651 52.6672 40.1703C55.308 40.5239 57.3954 40.9391 58.8022 41.3844ZM3.53218 41.7621C3.53252 41.7621 3.53515 41.7651 3.53907 41.7712C3.5338 41.7652 3.53184 41.7621 3.53218 41.7621ZM3.53218 42.166C3.53184 42.1659 3.5338 42.1629 3.53906 42.1568C3.53515 42.163 3.53252 42.166 3.53218 42.166ZM60.4605 42.1568C60.4658 42.1629 60.4677 42.1659 60.4674 42.166C60.4671 42.166 60.4644 42.163 60.4605 42.1568Z" stroke="#4969ED" stroke-width="2"/>
<path d="M60.4674 21.6389C60.4677 21.6389 60.4658 21.642 60.4605 21.6481C60.4644 21.6419 60.4671 21.6389 60.4674 21.6389ZM58.8022 21.2612C59.4577 21.4687 59.9151 21.6675 60.2019 21.8409C59.9151 22.0143 59.4577 22.213 58.8022 22.4205C57.3954 22.8658 55.308 23.281 52.6672 23.6346C47.4002 24.3398 40.0927 24.7793 31.9998 24.7793C23.9069 24.7793 16.5994 24.3398 11.3324 23.6346C8.69158 23.281 6.6042 22.8658 5.19741 22.4205C4.54192 22.213 4.08445 22.0143 3.79768 21.8409C4.08445 21.6675 4.54192 21.4687 5.19741 21.2612C6.6042 20.8159 8.69158 20.4007 11.3324 20.0472C16.5994 19.342 23.9069 18.9025 31.9998 18.9025C40.0927 18.9025 47.4002 19.342 52.6672 20.0472C55.308 20.4007 57.3954 20.8159 58.8022 21.2612ZM3.53218 21.6389C3.53252 21.6389 3.53515 21.6419 3.53907 21.6481C3.5338 21.642 3.53184 21.6389 3.53218 21.6389ZM3.53218 22.0428C3.53184 22.0428 3.5338 22.0397 3.53906 22.0336C3.53515 22.0398 3.53252 22.0428 3.53218 22.0428ZM60.4605 22.0336C60.4658 22.0397 60.4677 22.0428 60.4674 22.0428C60.4671 22.0428 60.4644 22.0398 60.4605 22.0336Z" stroke="#4969ED" stroke-width="2"/>
<path d="M63.0642 36.9576C63.0646 36.9576 63.0622 36.9611 63.0558 36.9679C63.0606 36.961 63.0638 36.9576 63.0642 36.9576ZM61.2059 36.6191C61.9001 36.8211 62.3986 37.0168 62.7233 37.1919C62.3986 37.3671 61.9001 37.5628 61.2059 37.7648C59.663 38.2137 57.3817 38.6303 54.5053 38.9843C48.7662 39.6906 40.809 40.1303 32 40.1303C23.191 40.1303 15.2338 39.6906 9.49474 38.9843C6.61827 38.6303 4.33698 38.2137 2.79411 37.7648C2.0999 37.5628 1.6014 37.3671 1.27673 37.1919C1.6014 37.0168 2.0999 36.8211 2.79411 36.6191C4.33698 36.1702 6.61827 35.7536 9.49474 35.3996C15.2338 34.6933 23.191 34.2535 32 34.2535C40.809 34.2535 48.7662 34.6933 54.5053 35.3996C57.3817 35.7536 59.663 36.1702 61.2059 36.6191ZM0.935778 36.9576C0.936188 36.9576 0.939404 36.961 0.944198 36.9679C0.937766 36.9611 0.935369 36.9576 0.935778 36.9576ZM0.935778 37.4263C0.935369 37.4262 0.937766 37.4227 0.944198 37.4159C0.939404 37.4229 0.936188 37.4263 0.935778 37.4263ZM63.0558 37.4159C63.0622 37.4227 63.0646 37.4262 63.0642 37.4263C63.0638 37.4263 63.0606 37.4229 63.0558 37.4159Z" stroke="#4969ED" stroke-width="2"/>
<path d="M63.0642 26.0337C63.0646 26.0337 63.0622 26.0372 63.0558 26.044C63.0606 26.037 63.0638 26.0336 63.0642 26.0337ZM61.2059 25.6952C61.9001 25.8972 62.3986 26.0928 62.7233 26.268C62.3986 26.4431 61.9001 26.6388 61.2059 26.8408C59.663 27.2898 57.3817 27.7063 54.5053 28.0603C48.7662 28.7667 40.809 29.2064 32 29.2064C23.191 29.2064 15.2338 28.7667 9.49474 28.0603C6.61827 27.7063 4.33698 27.2898 2.79411 26.8408C2.0999 26.6388 1.6014 26.4431 1.27673 26.268C1.6014 26.0928 2.0999 25.8972 2.79411 25.6952C4.33698 25.2462 6.61827 24.8297 9.49474 24.4756C15.2338 23.7693 23.191 23.3296 32 23.3296C40.809 23.3296 48.7662 23.7693 54.5053 24.4756C57.3817 24.8297 59.663 25.2462 61.2059 25.6952ZM0.935778 26.0337C0.936188 26.0336 0.939404 26.037 0.944198 26.044C0.937766 26.0372 0.935369 26.0337 0.935778 26.0337ZM0.935778 26.5023C0.935369 26.5023 0.937766 26.4988 0.944198 26.492C0.939404 26.4989 0.936188 26.5024 0.935778 26.5023ZM63.0558 26.492C63.0622 26.4988 63.0646 26.5023 63.0642 26.5023C63.0638 26.5024 63.0606 26.4989 63.0558 26.492Z" stroke="#4969ED" stroke-width="2"/>
<path d="M42.7628 3.53247C42.7628 3.53214 42.7659 3.53409 42.772 3.53936C42.7658 3.53544 42.7628 3.53281 42.7628 3.53247ZM42.3851 5.1977C42.5926 4.54221 42.7914 4.08475 42.9648 3.79797C43.1382 4.08475 43.3369 4.54221 43.5444 5.1977C43.9897 6.6045 44.4049 8.69187 44.7585 11.3327C45.4637 16.5997 45.9032 23.9072 45.9032 32.0001C45.9032 40.093 45.4637 47.4005 44.7585 52.6675C44.4049 55.3083 43.9897 57.3957 43.5444 58.8025C43.3369 59.458 43.1382 59.9154 42.9648 60.2022C42.7914 59.9154 42.5926 59.458 42.3851 58.8025C41.9398 57.3957 41.5246 55.3083 41.1711 52.6675C40.4659 47.4005 40.0264 40.093 40.0264 32.0001C40.0264 23.9072 40.4659 16.5997 41.1711 11.3327C41.5246 8.69187 41.9398 6.6045 42.3851 5.1977ZM42.7628 60.4677C42.7628 60.4674 42.7658 60.4647 42.772 60.4608C42.7659 60.4661 42.7628 60.468 42.7628 60.4677ZM43.1667 60.4677C43.1667 60.468 43.1636 60.4661 43.1575 60.4608C43.1637 60.4647 43.1667 60.4674 43.1667 60.4677ZM43.1575 3.53936C43.1636 3.53409 43.1667 3.53214 43.1667 3.53247C43.1667 3.53281 43.1637 3.53545 43.1575 3.53936Z" stroke="#4969ED" stroke-width="2"/>
<path d="M22.6393 3.53247C22.6393 3.53214 22.6424 3.53409 22.6484 3.53936C22.6423 3.53544 22.6393 3.53281 22.6393 3.53247ZM22.2616 5.1977C22.4691 4.54221 22.6678 4.08475 22.8412 3.79797C23.0146 4.08475 23.2134 4.54221 23.4209 5.1977C23.8662 6.6045 24.2814 8.69187 24.6349 11.3327C25.3401 16.5997 25.7796 23.9072 25.7796 32.0001C25.7796 40.093 25.3401 47.4005 24.6349 52.6675C24.2814 55.3083 23.8662 57.3957 23.4209 58.8025C23.2134 59.458 23.0146 59.9154 22.8412 60.2022C22.6678 59.9154 22.4691 59.458 22.2616 58.8025C21.8163 57.3957 21.4011 55.3083 21.0475 52.6675C20.3423 47.4005 19.9028 40.093 19.9028 32.0001C19.9028 23.9072 20.3423 16.5997 21.0475 11.3327C21.4011 8.69187 21.8163 6.6045 22.2616 5.1977ZM22.6393 60.4677C22.6393 60.4674 22.6423 60.4647 22.6484 60.4608C22.6424 60.4661 22.6393 60.468 22.6393 60.4677ZM23.0432 60.4677C23.0431 60.468 23.0401 60.4661 23.034 60.4608C23.0402 60.4647 23.0432 60.4674 23.0432 60.4677ZM23.034 3.53936C23.0401 3.53409 23.0431 3.53214 23.0432 3.53247C23.0432 3.53281 23.0402 3.53545 23.034 3.53936Z" stroke="#4969ED" stroke-width="2"/>
<path d="M37.958 0.93578C37.958 0.935371 37.9615 0.937756 37.9683 0.944172C37.9613 0.939396 37.9579 0.936188 37.958 0.93578ZM37.6195 2.79411C37.8215 2.0999 38.0171 1.6014 38.1923 1.27673C38.3675 1.6014 38.5631 2.0999 38.7651 2.79411C39.2141 4.33698 39.6306 6.61827 39.9847 9.49474C40.691 15.2338 41.1307 23.191 41.1307 32C41.1307 40.809 40.691 48.7662 39.9847 54.5053C39.6306 57.3817 39.2141 59.663 38.7651 61.2059C38.5631 61.9001 38.3675 62.3986 38.1923 62.7233C38.0171 62.3986 37.8215 61.9001 37.6195 61.2059C37.1705 59.663 36.754 57.3817 36.3999 54.5053C35.6936 48.7662 35.2539 40.809 35.2539 32C35.2539 23.191 35.6936 15.2338 36.3999 9.49474C36.754 6.61827 37.1705 4.33698 37.6195 2.79411ZM37.958 63.0642C37.9579 63.0638 37.9613 63.0606 37.9683 63.0558C37.9615 63.0622 37.958 63.0646 37.958 63.0642ZM38.4266 63.0642C38.4266 63.0646 38.4231 63.0622 38.4163 63.0558C38.4233 63.0606 38.4267 63.0638 38.4266 63.0642ZM38.4163 0.944183C38.4231 0.937763 38.4266 0.935371 38.4266 0.93578C38.4267 0.936188 38.4233 0.939404 38.4163 0.944183Z" stroke="#4969ED" stroke-width="2"/>
<path d="M27.0341 0.93578C27.0342 0.935371 27.0376 0.937756 27.0444 0.944172C27.0375 0.939396 27.0341 0.936188 27.0341 0.93578ZM26.6956 2.79411C26.8977 2.0999 27.0933 1.6014 27.2685 1.27673C27.4436 1.6014 27.6393 2.0999 27.8413 2.79411C28.2902 4.33698 28.7068 6.61827 29.0608 9.49474C29.7672 15.2338 30.2069 23.191 30.2069 32C30.2069 40.809 29.7672 48.7662 29.0608 54.5053C28.7068 57.3817 28.2902 59.663 27.8413 61.2059C27.6393 61.9001 27.4436 62.3986 27.2685 62.7233C27.0933 62.3986 26.8977 61.9001 26.6956 61.2059C26.2467 59.663 25.8301 57.3817 25.4761 54.5053C24.7698 48.7662 24.3301 40.809 24.3301 32C24.3301 23.191 24.7698 15.2338 25.4761 9.49474C25.8301 6.61827 26.2467 4.33698 26.6956 2.79411ZM27.0341 63.0642C27.0341 63.0638 27.0375 63.0606 27.0445 63.0558C27.0377 63.0622 27.0342 63.0646 27.0341 63.0642ZM27.5028 63.0642C27.5028 63.0646 27.4993 63.0622 27.4925 63.0558C27.4994 63.0606 27.5028 63.0638 27.5028 63.0642ZM27.4925 0.944183C27.4993 0.937763 27.5028 0.935371 27.5028 0.93578C27.5028 0.936188 27.4994 0.939404 27.4925 0.944183Z" stroke="#4969ED" stroke-width="2"/>
</svg>
