<svg class="bg-blueWater" width="64" height="28" viewBox="0 0 65 28" fill="none" xmlns="http://www.w3.org/2000/svg">
<path d="M61.8754 24.1749V24.1749L61.8754 24.1751L61.8751 24.1766C61.8749 24.1775 61.8745 24.1793 61.8737 24.182C61.8731 24.1836 61.8725 24.1855 61.8716 24.1877C61.8668 24.1999 61.8554 24.2226 61.8294 24.2553C61.7751 24.3238 61.6741 24.415 61.5032 24.5219C61.1605 24.7364 60.6226 24.9613 59.8827 25.1853C58.4104 25.631 56.2549 26.0389 53.5616 26.3838C48.1821 27.0725 40.7355 27.5001 32.4999 27.5001C24.2644 27.5001 16.8178 27.0725 11.4383 26.3838C8.74503 26.0389 6.58947 25.631 5.11714 25.1853C4.3773 24.9613 3.83938 24.7364 3.49669 24.5219C3.32583 24.415 3.2248 24.3238 3.17049 24.2553C3.14453 24.2226 3.13309 24.1999 3.12828 24.1877C3.12592 24.1817 3.12506 24.1781 3.12476 24.1766L3.12453 24.1751L3.12451 24.1749L3.12451 24.1749L3.12451 24.1749L3.12453 24.1747L3.12476 24.1732C3.12506 24.1717 3.12592 24.1681 3.12828 24.1621C3.13309 24.15 3.14453 24.1272 3.17049 24.0945C3.2248 24.026 3.32583 23.9348 3.49669 23.8279C3.83938 23.6134 4.3773 23.3885 5.11714 23.1645C6.58947 22.7188 8.74503 22.3109 11.4383 21.966C16.8178 21.2773 24.2644 20.8497 32.4999 20.8497C40.7355 20.8497 48.1821 21.2773 53.5616 21.966C56.2549 22.3109 58.4104 22.7188 59.8827 23.1645C60.6226 23.3885 61.1605 23.6134 61.5032 23.8279C61.6741 23.9348 61.7751 24.026 61.8294 24.0945C61.8554 24.1272 61.8668 24.15 61.8716 24.1621C61.874 24.1681 61.8748 24.1717 61.8751 24.1732L61.8754 24.1747L61.8754 24.1749V24.1749Z" stroke="#4969ED"/>
<path d="M61.8754 4.63023V4.63026L61.8754 4.63044L61.8751 4.6319C61.8749 4.63286 61.8745 4.63466 61.8737 4.63734C61.8731 4.63892 61.8725 4.64081 61.8716 4.64302C61.8668 4.65517 61.8554 4.67789 61.8294 4.71061C61.7751 4.77908 61.6741 4.87036 61.5032 4.97727C61.1605 5.19169 60.6226 5.41664 59.8827 5.6406C58.4104 6.0863 56.2549 6.49424 53.5616 6.83908C48.1821 7.52785 40.7355 7.9554 32.4999 7.9554C24.2644 7.9554 16.8178 7.52785 11.4383 6.83908C8.74503 6.49424 6.58947 6.0863 5.11714 5.6406C4.3773 5.41664 3.83938 5.19169 3.49669 4.97727C3.32583 4.87036 3.2248 4.77908 3.17049 4.71061C3.14453 4.67789 3.13309 4.65517 3.12828 4.64302C3.12592 4.63706 3.12506 4.63343 3.12476 4.6319L3.12453 4.63044L3.12451 4.63026L3.12451 4.63023L3.12451 4.63019L3.12453 4.63001L3.12476 4.62855C3.12506 4.62702 3.12592 4.62339 3.12828 4.61743C3.13309 4.60528 3.14453 4.58257 3.17049 4.54984C3.2248 4.48137 3.32583 4.39009 3.49669 4.28319C3.83938 4.06876 4.3773 3.84381 5.11714 3.61985C6.58947 3.17415 8.74503 2.76621 11.4383 2.42137C16.8178 1.7326 24.2644 1.30505 32.4999 1.30505C40.7355 1.30505 48.1821 1.7326 53.5616 2.42137C56.2549 2.76621 58.4104 3.17415 59.8827 3.61985C60.6226 3.84381 61.1605 4.06876 61.5032 4.28319C61.6741 4.39009 61.7751 4.48137 61.8294 4.54984C61.8554 4.58257 61.8668 4.60528 61.8716 4.61743C61.874 4.62339 61.8748 4.62702 61.8751 4.62855L61.8754 4.63001L61.8754 4.63019V4.63023Z" stroke="#4969ED"/>
<path d="M64.5009 19.5316C64.501 19.5316 64.5009 19.5325 64.5003 19.5343C64.5006 19.5325 64.5008 19.5316 64.5009 19.5316ZM64.4537 19.4756C64.4817 19.508 64.4934 19.5293 64.4981 19.54C64.4934 19.5508 64.4817 19.572 64.4537 19.6045C64.393 19.6748 64.2801 19.7684 64.0904 19.8775C63.7113 20.0956 63.1197 20.3225 62.3119 20.5472C60.7042 20.9946 58.3542 21.4032 55.4225 21.7482C49.566 22.4375 41.4614 22.8652 32.5 22.8652C23.5386 22.8652 15.434 22.4375 9.57747 21.7482C6.64583 21.4032 4.2958 20.9946 2.68805 20.5472C1.8803 20.3225 1.28874 20.0956 0.909577 19.8775C0.719938 19.7684 0.606996 19.6748 0.546352 19.6045C0.518301 19.572 0.506562 19.5508 0.501908 19.54C0.506562 19.5293 0.518301 19.5081 0.546352 19.4756C0.606996 19.4053 0.719938 19.3116 0.909577 19.2025C1.28874 18.9844 1.8803 18.7576 2.68805 18.5328C4.2958 18.0854 6.64583 17.6768 9.57747 17.3318C15.434 16.6425 23.5386 16.2148 32.5 16.2148C41.4614 16.2148 49.566 16.6425 55.4225 17.3318C58.3542 17.6768 60.7042 18.0854 62.3119 18.5328C63.1197 18.7576 63.7113 18.9844 64.0904 19.2025C64.2801 19.3116 64.393 19.4053 64.4537 19.4756ZM0.499102 19.5316C0.499174 19.5316 0.499427 19.5324 0.499646 19.534C0.49914 19.5324 0.499031 19.5316 0.499102 19.5316ZM0.499102 19.5484C0.499031 19.5484 0.49914 19.5476 0.499646 19.546C0.499427 19.5476 0.499174 19.5484 0.499102 19.5484ZM64.5003 19.5458C64.5009 19.5476 64.501 19.5484 64.5009 19.5484C64.5008 19.5484 64.5005 19.5475 64.5003 19.5458Z" stroke="#4969ED"/>
<path d="M64.5009 8.92161C64.501 8.9216 64.5009 8.92249 64.5003 8.92428C64.5006 8.92252 64.5008 8.92163 64.5009 8.92161ZM64.4537 8.86557C64.4817 8.89806 64.4934 8.9193 64.4981 8.93005C64.4934 8.94081 64.4817 8.96201 64.4537 8.99449C64.393 9.06478 64.2801 9.15844 64.0904 9.26752C63.7113 9.4856 63.1197 9.71249 62.3119 9.93726C60.7042 10.3846 58.3542 10.7932 55.4225 11.1383C49.566 11.8276 41.4614 12.2552 32.5 12.2552C23.5386 12.2552 15.434 11.8276 9.57747 11.1383C6.64583 10.7932 4.2958 10.3846 2.68805 9.93726C1.8803 9.71249 1.28874 9.4856 0.909577 9.26752C0.719938 9.15844 0.606996 9.06478 0.546352 8.99449C0.518301 8.96198 0.506562 8.94078 0.501908 8.93003C0.506562 8.91928 0.518301 8.89808 0.546352 8.86557C0.606996 8.79529 0.719938 8.70162 0.909577 8.59255C1.28874 8.37446 1.8803 8.14757 2.68805 7.9228C4.2958 7.47541 6.64583 7.06684 9.57747 6.7218C15.434 6.0325 23.5386 5.60486 32.5 5.60486C41.4614 5.60486 49.566 6.0325 55.4225 6.7218C58.3542 7.06684 60.7042 7.47541 62.3119 7.9228C63.1197 8.14757 63.7113 8.37446 64.0904 8.59255C64.2801 8.70162 64.393 8.79529 64.4537 8.86557ZM0.499102 8.92161C0.499174 8.92162 0.499427 8.92244 0.499646 8.92406C0.49914 8.92241 0.499031 8.92161 0.499102 8.92161ZM0.499102 8.93845C0.499031 8.93845 0.49914 8.93765 0.499646 8.936C0.499427 8.93762 0.499174 8.93844 0.499102 8.93845ZM64.5003 8.9358C64.5009 8.93759 64.501 8.93846 64.5009 8.93845C64.5008 8.93843 64.5005 8.93755 64.5003 8.9358Z" stroke="#4969ED"/>
</svg>
